<?xml version="1.0" encoding="UTF-8" standalone="no"?>
<svg
   xmlns:dc="http://purl.org/dc/elements/1.1/"
   xmlns:cc="http://creativecommons.org/ns#"
   xmlns:rdf="http://www.w3.org/1999/02/22-rdf-syntax-ns#"
   xmlns:svg="http://www.w3.org/2000/svg"
   xmlns="http://www.w3.org/2000/svg"
   xmlns:sodipodi="http://sodipodi.sourceforge.net/DTD/sodipodi-0.dtd"
   xmlns:inkscape="http://www.inkscape.org/namespaces/inkscape"
   version="1.1"
   width="45"
   height="45"
   id="svg1013"
   sodipodi:docname="queen.svg"
   inkscape:version="1.0.1 (3bc2e813f5, 2020-09-07)">
  <metadata
     id="metadata1019">
    <rdf:RDF>
      <cc:Work
         rdf:about="">
        <dc:format>image/svg+xml</dc:format>
        <dc:type
           rdf:resource="http://purl.org/dc/dcmitype/StillImage" />
      </cc:Work>
    </rdf:RDF>
  </metadata>
  <defs
     id="defs1017" />
  <sodipodi:namedview
     pagecolor="#ffffff"
     bordercolor="#666666"
     borderopacity="1"
     objecttolerance="10"
     gridtolerance="10"
     guidetolerance="10"
     inkscape:pageopacity="0"
     inkscape:pageshadow="2"
     inkscape:window-width="1916"
     inkscape:window-height="1054"
     id="namedview1015"
     showgrid="false"
     inkscape:zoom="10.399571"
     inkscape:cx="15.876297"
     inkscape:cy="4.8613401"
     inkscape:window-x="0"
     inkscape:window-y="22"
     inkscape:window-maximized="0"
     inkscape:current-layer="svg1013" />
  <path
     id="circle985"
     style="fill:#000000;fill-opacity:1;fill-rule:evenodd;stroke:#ffffff;stroke-width:2;stroke-linecap:round;stroke-linejoin:round;stroke-miterlimit:4;stroke-dasharray:none;stroke-opacity:1;paint-order:stroke fill markers"
     d="M 22.5 5.25 A 2.75 2.75 0 0 0 19.75 8 A 2.75 2.75 0 0 0 21.609375 10.599609 L 19.285156 21.837891 L 15.302734 11.421875 A 2.75 2.75 0 0 0 16.75 9 A 2.75 2.75 0 0 0 14 6.25 A 2.75 2.75 0 0 0 11.25 9 A 2.75 2.75 0 0 0 13.533203 11.708984 L 13.302734 22.554688 L 7.7832031 14.091797 A 2.75 2.75 0 0 0 8.75 12 A 2.75 2.75 0 0 0 6 9.25 A 2.75 2.75 0 0 0 3.25 12 A 2.75 2.75 0 0 0 5.984375 14.75 L 8.2558594 26.111328 C 8.2898736 27.235932 8.8172537 28.004754 9.34375 28.53125 C 9.8879442 29.075444 10.39716 29.470102 10.830078 30.335938 A 0.750075 0.750075 0 0 0 10.875 30.416016 C 11.135667 30.807017 11.333231 31.069849 11.443359 31.238281 C 11.553488 31.406713 11.563232 31.443843 11.572266 31.498047 C 11.589436 31.601087 11.502196 32.136432 11.279297 33.261719 C 10.073824 34.336483 9.8069257 35.565804 9.7910156 35.814453 C 9.5049298 36.187737 9.2277913 36.569964 9.1972656 36.966797 C 9.1575866 37.482625 9.3511839 37.930329 9.578125 38.248047 C 10.032007 38.883482 10.664063 39.169922 10.664062 39.169922 A 0.750075 0.750075 0 0 0 10.753906 39.207031 L 10.753906 39.208984 C 10.768718 39.214137 10.784012 39.217524 10.798828 39.222656 C 18.373772 41.846716 26.609684 41.848933 34.185547 39.228516 A 0.750075 0.750075 0 0 0 34.195312 39.224609 C 34.212079 39.218805 34.229334 39.214815 34.246094 39.208984 A 0.750075 0.750075 0 0 0 34.416016 39.125 C 34.416016 39.125 34.962577 38.782632 35.251953 38.107422 C 35.503322 37.520896 35.348523 36.647406 34.742188 35.837891 C 34.789017 35.629838 34.862532 35.478354 34.806641 35.03125 C 34.735151 34.459327 34.370212 33.762602 33.707031 33.179688 C 33.508236 32.166401 33.41136 31.596294 33.427734 31.498047 C 33.436734 31.443847 33.446514 31.406717 33.556641 31.238281 C 33.666769 31.069849 33.864333 30.807017 34.125 30.416016 A 0.750075 0.750075 0 0 0 34.169922 30.335938 C 34.602845 29.470104 35.112056 29.075444 35.65625 28.53125 C 36.182746 28.004754 36.710126 27.235932 36.744141 26.111328 L 39.015625 14.75 A 2.75 2.75 0 0 0 41.75 12 A 2.75 2.75 0 0 0 39 9.25 A 2.75 2.75 0 0 0 36.25 12 A 2.75 2.75 0 0 0 37.216797 14.09375 L 31.697266 22.554688 L 31.466797 11.708984 A 2.75 2.75 0 0 0 33.75 9 A 2.75 2.75 0 0 0 31 6.25 A 2.75 2.75 0 0 0 28.25 9 A 2.75 2.75 0 0 0 29.697266 11.421875 L 25.714844 21.837891 L 23.390625 10.601562 A 2.75 2.75 0 0 0 25.25 8 A 2.75 2.75 0 0 0 22.5 5.25 z " />
  <g
     id="g1604">
    <path
       d="m 11,29 a 35,35 0 0 1 23,0"
       style="fill:none;fill-opacity:1;fill-rule:evenodd;stroke:#ffffff;stroke-width:1.5;stroke-linecap:round;stroke-linejoin:round;stroke-miterlimit:4;stroke-dasharray:none;stroke-opacity:1"
       id="path1003" />
    <path
       d="m 12.5,31.5 h 20"
       style="fill:none;fill-opacity:1;fill-rule:evenodd;stroke:#ffffff;stroke-width:1.5;stroke-linecap:round;stroke-linejoin:round;stroke-miterlimit:4;stroke-dasharray:none;stroke-opacity:1"
       id="path1005" />
    <path
       d="m 11.5,34.5 a 35,35 0 0 0 22,0"
       style="fill:none;fill-opacity:1;fill-rule:evenodd;stroke:#ffffff;stroke-width:1.5;stroke-linecap:round;stroke-linejoin:round;stroke-miterlimit:4;stroke-dasharray:none;stroke-opacity:1"
       id="path1007" />
    <path
       d="m 10.5,37.5 a 35,35 0 0 0 24,0"
       style="fill:none;fill-opacity:1;fill-rule:evenodd;stroke:#ffffff;stroke-width:1.5;stroke-linecap:round;stroke-linejoin:round;stroke-miterlimit:4;stroke-dasharray:none;stroke-opacity:1"
       id="path1009" />
  </g>
</svg>
