<?xml version="1.0" encoding="UTF-8" standalone="no"?>
<svg
   xmlns:dc="http://purl.org/dc/elements/1.1/"
   xmlns:cc="http://creativecommons.org/ns#"
   xmlns:rdf="http://www.w3.org/1999/02/22-rdf-syntax-ns#"
   xmlns:svg="http://www.w3.org/2000/svg"
   xmlns="http://www.w3.org/2000/svg"
   xmlns:sodipodi="http://sodipodi.sourceforge.net/DTD/sodipodi-0.dtd"
   xmlns:inkscape="http://www.inkscape.org/namespaces/inkscape"
   version="1.1"
   width="45"
   height="45"
   id="svg1713"
   sodipodi:docname="rook.svg"
   inkscape:version="1.0.1 (3bc2e813f5, 2020-09-07)">
  <metadata
     id="metadata1719">
    <rdf:RDF>
      <cc:Work
         rdf:about="">
        <dc:format>image/svg+xml</dc:format>
        <dc:type
           rdf:resource="http://purl.org/dc/dcmitype/StillImage" />
      </cc:Work>
    </rdf:RDF>
  </metadata>
  <defs
     id="defs1717" />
  <sodipodi:namedview
     pagecolor="#ffffff"
     bordercolor="#666666"
     borderopacity="1"
     objecttolerance="10"
     gridtolerance="10"
     guidetolerance="10"
     inkscape:pageopacity="0"
     inkscape:pageshadow="2"
     inkscape:window-width="1916"
     inkscape:window-height="1054"
     id="namedview1715"
     showgrid="false"
     inkscape:zoom="17.199657"
     inkscape:cx="7.0715954"
     inkscape:cy="20.238461"
     inkscape:window-x="0"
     inkscape:window-y="22"
     inkscape:window-maximized="0"
     inkscape:current-layer="svg1713" />
  <path
     id="path2302"
     style="color:#000000;font-style:normal;font-variant:normal;font-weight:normal;font-stretch:normal;font-size:medium;line-height:normal;font-family:sans-serif;font-variant-ligatures:normal;font-variant-position:normal;font-variant-caps:normal;font-variant-numeric:normal;font-variant-alternates:normal;font-variant-east-asian:normal;font-feature-settings:normal;font-variation-settings:normal;text-indent:0;text-align:start;text-decoration:none;text-decoration-line:none;text-decoration-style:solid;text-decoration-color:#000000;letter-spacing:normal;word-spacing:normal;text-transform:none;writing-mode:lr-tb;direction:ltr;text-orientation:mixed;dominant-baseline:auto;baseline-shift:baseline;text-anchor:start;white-space:normal;shape-padding:0;shape-margin:0;inline-size:0;clip-rule:nonzero;display:inline;overflow:visible;visibility:visible;isolation:auto;mix-blend-mode:normal;color-interpolation:sRGB;color-interpolation-filters:linearRGB;solid-color:#000000;solid-opacity:1;vector-effect:none;fill:#000000;fill-opacity:1;fill-rule:evenodd;stroke:#ffffff;stroke-width:2;stroke-linecap:butt;stroke-linejoin:round;stroke-miterlimit:4;stroke-dasharray:none;stroke-dashoffset:0;stroke-opacity:1;color-rendering:auto;image-rendering:auto;shape-rendering:auto;text-rendering:auto;enable-background:accumulate;stop-color:#000000;paint-order:stroke fill markers"
     d="M 11 8.25 A 0.750075 0.750075 0 0 0 10.25 9 L 10.25 13.986328 L 10.25 14 A 0.750075 0.750075 0 0 0 10.25 14.013672 A 0.750075 0.750075 0 0 0 10.253906 14.072266 A 0.750075 0.750075 0 0 0 10.261719 14.136719 A 0.750075 0.750075 0 0 0 10.269531 14.167969 A 0.750075 0.750075 0 0 0 10.28125 14.212891 A 0.750075 0.750075 0 0 0 10.283203 14.21875 A 0.750075 0.750075 0 0 0 10.306641 14.283203 A 0.750075 0.750075 0 0 0 10.333984 14.34375 A 0.750075 0.750075 0 0 0 10.365234 14.398438 A 0.750075 0.750075 0 0 0 10.367188 14.402344 A 0.750075 0.750075 0 0 0 10.394531 14.441406 A 0.750075 0.750075 0 0 0 10.412109 14.466797 A 0.750075 0.750075 0 0 0 10.429688 14.486328 A 0.750075 0.750075 0 0 0 10.462891 14.523438 A 0.750075 0.750075 0 0 0 10.470703 14.529297 A 0.750075 0.750075 0 0 0 10.519531 14.576172 L 13.25 16.851562 L 13.25 29.292969 L 12.076172 31.25 L 12 31.25 A 0.750075 0.750075 0 0 0 11.25 32 L 11.25 35.25 L 9 35.25 A 0.750075 0.750075 0 0 0 8.25 36 L 8.25 39 A 0.750075 0.750075 0 0 0 9 39.75 L 36 39.75 A 0.750075 0.750075 0 0 0 36.75 39 L 36.75 36 A 0.750075 0.750075 0 0 0 36 35.25 L 33.75 35.25 L 33.75 32 A 0.750075 0.750075 0 0 0 33 31.25 L 32.923828 31.25 L 31.75 29.292969 L 31.75 16.851562 L 34.470703 14.583984 A 0.750075 0.750075 0 0 0 34.480469 14.576172 A 0.750075 0.750075 0 0 0 34.525391 14.535156 A 0.750075 0.750075 0 0 0 34.533203 14.527344 A 0.750075 0.750075 0 0 0 34.574219 14.480469 A 0.750075 0.750075 0 0 0 34.582031 14.472656 A 0.750075 0.750075 0 0 0 34.619141 14.423828 A 0.750075 0.750075 0 0 0 34.625 14.414062 A 0.750075 0.750075 0 0 0 34.65625 14.361328 A 0.750075 0.750075 0 0 0 34.662109 14.351562 A 0.750075 0.750075 0 0 0 34.689453 14.294922 A 0.750075 0.750075 0 0 0 34.693359 14.285156 A 0.750075 0.750075 0 0 0 34.714844 14.228516 A 0.750075 0.750075 0 0 0 34.71875 14.216797 A 0.750075 0.750075 0 0 0 34.732422 14.158203 A 0.750075 0.750075 0 0 0 34.744141 14.085938 A 0.750075 0.750075 0 0 0 34.746094 14.074219 A 0.750075 0.750075 0 0 0 34.75 14 L 34.75 9 A 0.750075 0.750075 0 0 0 34 8.25 L 30 8.25 A 0.750075 0.750075 0 0 0 29.25 9 L 29.25 10.25 L 25.75 10.25 L 25.75 9 A 0.750075 0.750075 0 0 0 25 8.25 L 20 8.25 A 0.750075 0.750075 0 0 0 19.25 9 L 19.25 10.25 L 15.75 10.25 L 15.75 9 A 0.750075 0.750075 0 0 0 15 8.25 L 11 8.25 z " />
  <g
     id="g2298">
    <path
       d="m 12,35.5 h 21 v 0"
       style="fill:none;fill-opacity:1;fill-rule:evenodd;stroke:#ffffff;stroke-width:1;stroke-linecap:round;stroke-linejoin:miter;stroke-miterlimit:4;stroke-dasharray:none;stroke-opacity:1"
       id="path1701" />
    <path
       d="M 13,31.5 H 32"
       style="fill:none;fill-opacity:1;fill-rule:evenodd;stroke:#ffffff;stroke-width:1;stroke-linecap:round;stroke-linejoin:miter;stroke-miterlimit:4;stroke-dasharray:none;stroke-opacity:1"
       id="path1703" />
    <path
       d="M 14,29.5 H 31"
       style="fill:none;fill-opacity:1;fill-rule:evenodd;stroke:#ffffff;stroke-width:1;stroke-linecap:round;stroke-linejoin:miter;stroke-miterlimit:4;stroke-dasharray:none;stroke-opacity:1"
       id="path1705" />
    <path
       d="M 14,16.5 H 31"
       style="fill:none;fill-opacity:1;fill-rule:evenodd;stroke:#ffffff;stroke-width:1;stroke-linecap:round;stroke-linejoin:miter;stroke-miterlimit:4;stroke-dasharray:none;stroke-opacity:1"
       id="path1707" />
    <path
       d="M 11,14 H 34"
       style="fill:none;fill-opacity:1;fill-rule:evenodd;stroke:#ffffff;stroke-width:1;stroke-linecap:round;stroke-linejoin:miter;stroke-miterlimit:4;stroke-dasharray:none;stroke-opacity:1"
       id="path1709" />
  </g>
</svg>
